<?xml version="1.0" encoding="utf-8"?>
<!-- Generator: Adobe Illustrator 19.1.0, SVG Export Plug-In . SVG Version: 6.00 Build 0)  -->
<svg version="1.1" id="Layer_1" xmlns="http://www.w3.org/2000/svg" x="0px" y="0px"
     viewBox="0 0 800 800" style="enable-background:new 0 0 800 800;" xml:space="preserve">
<style type="text/css">
	.st0{fill:#1C2238;}
	.st1{fill:url(#SVGID_1_);}
	.st2{fill:url(#SVGID_2_);}
	.st3{fill:url(#SVGID_3_);}
	.st4{fill:#9ED82A;}
	.st5{fill:#1C900A;}
	.st6{fill:url(#SVGID_4_);}
	.st7{fill:url(#SVGID_5_);}
	.st8{fill:url(#SVGID_6_);}
</style>
    <rect class="st0" width="800" height="800"/>
    <g>
	<path class="st4" d="M122.3,549.9h8.6V563h-8.6v33.7h-18V563h-6.7v-13.1h6.7v-2.1c0-1.9,0.2-4,0.6-6.3c0.4-2.3,1.2-4.2,2.3-5.6
		c1.1-1.5,2.7-2.6,4.8-3.5c2-0.9,5-1.3,9-1.3c3.1,0,7.7,0.4,13.7,1.1l-2,10.8c-2.1-0.4-3.9-0.5-5.2-0.5c-1.6,0-2.8,0.3-3.5,0.8
		c-0.7,0.5-1.2,1.4-1.5,2.6C122.4,546.5,122.3,547.8,122.3,549.9z"/>
        <path class="st4" d="M138.2,532.1h18v64.6h-18V532.1z"/>
        <path class="st4" d="M215.8,596.7H199v-7.6c-2.5,3.1-5,5.3-7.6,6.7c-2.5,1.3-5.7,2-9.4,2c-4.9,0-8.8-1.5-11.6-4.4
		c-2.8-3-4.2-7.5-4.2-13.6v-29.8h18v25.7c0,2.9,0.5,5,1.6,6.3c1.1,1.2,2.6,1.9,4.6,1.9c2.1,0,3.9-0.8,5.3-2.5c1.4-1.6,2-4.6,2-8.9
		v-22.5h17.9V596.7z"/>
        <path class="st4" d="M277.5,577.8h-36c0.3,2.9,1.1,5,2.3,6.4c1.7,2,4,3,6.8,3c1.8,0,3.4-0.4,5-1.3c1-0.6,2-1.5,3.1-3l17.7,1.6
		c-2.7,4.7-6,8.1-9.8,10.1c-3.8,2-9.3,3.1-16.4,3.1c-6.2,0-11.1-0.9-14.6-2.6c-3.6-1.7-6.5-4.5-8.8-8.3c-2.3-3.8-3.5-8.3-3.5-13.4
		c0-7.3,2.3-13.2,7-17.8c4.7-4.5,11.2-6.8,19.4-6.8c6.7,0,12,1,15.9,3c3.9,2,6.8,5,8.9,8.8c2,3.9,3,8.9,3,15V577.8z M259.2,569.2
		c-0.4-3.5-1.3-6-2.8-7.4c-1.5-1.5-3.5-2.2-6-2.2c-2.8,0-5.1,1.1-6.8,3.4c-1.1,1.4-1.8,3.5-2.1,6.3H259.2z"/>
        <path class="st4" d="M285,549.9h16.7v7.6c2.5-3.1,5-5.3,7.6-6.7c2.6-1.3,5.7-2,9.3-2c5,0,8.9,1.5,11.7,4.4c2.8,3,4.2,7.5,4.2,13.7
		v29.8h-18V571c0-2.9-0.5-5-1.6-6.2c-1.1-1.2-2.6-1.8-4.6-1.8c-2.2,0-3.9,0.8-5.3,2.5c-1.4,1.6-2,4.6-2,8.9v22.5H285V549.9z"/>
        <path class="st4" d="M365,532.1v17.8h9.9V563H365v16.6c0,2,0.2,3.3,0.6,4c0.6,1,1.6,1.5,3.1,1.5c1.3,0,3.2-0.4,5.6-1.1l1.3,12.4
		c-4.4,1-8.6,1.5-12.4,1.5c-4.5,0-7.8-0.6-9.9-1.7c-2.1-1.1-3.7-2.9-4.7-5.2c-1-2.3-1.5-6.1-1.5-11.3V563h-6.6v-13.1h6.6v-8.6
		L365,532.1z"/>
        <path class="st5" d="M383.4,532.1h18v64.6h-18V532.1z"/>
        <path class="st5" d="M463.5,577.8h-36c0.3,2.9,1.1,5,2.3,6.4c1.7,2,4,3,6.8,3c1.8,0,3.4-0.4,5-1.3c1-0.6,2-1.5,3.1-3l17.7,1.6
		c-2.7,4.7-6,8.1-9.8,10.1c-3.8,2-9.3,3.1-16.4,3.1c-6.2,0-11.1-0.9-14.6-2.6c-3.6-1.7-6.5-4.5-8.8-8.3c-2.3-3.8-3.5-8.3-3.5-13.4
		c0-7.3,2.3-13.2,7-17.8c4.7-4.5,11.2-6.8,19.4-6.8c6.7,0,12,1,15.9,3c3.9,2,6.8,5,8.9,8.8c2,3.9,3,8.9,3,15V577.8z M445.3,569.2
		c-0.4-3.5-1.3-6-2.8-7.4c-1.5-1.5-3.5-2.2-6-2.2c-2.9,0-5.1,1.1-6.8,3.4c-1.1,1.4-1.8,3.5-2.1,6.3H445.3z"/>
        <path class="st5" d="M471,549.9h16.7v7.6c2.5-3.1,5-5.3,7.6-6.7c2.6-1.3,5.7-2,9.3-2c5,0,8.9,1.5,11.7,4.4c2.8,3,4.2,7.5,4.2,13.7
		v29.8h-18V571c0-2.9-0.5-5-1.6-6.2c-1.1-1.2-2.6-1.8-4.6-1.8c-2.2,0-3.9,0.8-5.3,2.5c-1.4,1.6-2,4.6-2,8.9v22.5H471V549.9z"/>
        <path class="st5" d="M530.6,532.1h17.9v12.2h-17.9V532.1z M530.6,549.9h17.9v46.8h-17.9V549.9z"/>
        <path class="st5" d="M608.2,596.7h-16.8v-7.6c-2.5,3.1-5,5.3-7.6,6.7c-2.5,1.3-5.7,2-9.4,2c-4.9,0-8.8-1.5-11.6-4.4
		c-2.8-3-4.2-7.5-4.2-13.6v-29.8h18v25.7c0,2.9,0.5,5,1.6,6.3c1.1,1.2,2.6,1.9,4.6,1.9c2.1,0,3.9-0.8,5.3-2.5
		c1.4-1.6,2.1-4.6,2.1-8.9v-22.5h17.9V596.7z"/>
        <path class="st5" d="M618.2,549.9h16.8v6.8c2.4-2.8,4.8-4.9,7.3-6.1c2.5-1.2,5.4-1.8,8.9-1.8c3.7,0,6.7,0.7,8.9,2
		c2.2,1.3,4,3.3,5.3,5.9c2.8-3.1,5.4-5.1,7.7-6.2c2.3-1.1,5.2-1.7,8.6-1.7c5,0,8.9,1.5,11.8,4.5c2.8,3,4.2,7.6,4.2,14v29.4h-18
		v-26.7c0-2.1-0.4-3.7-1.2-4.7c-1.2-1.6-2.7-2.4-4.5-2.4c-2.1,0-3.8,0.8-5.1,2.3c-1.3,1.5-1.9,4-1.9,7.4v24.2h-18v-25.8
		c0-2.1-0.1-3.5-0.4-4.2c-0.4-1.2-1-2.1-2-2.8c-0.9-0.7-2-1.1-3.3-1.1c-2.1,0-3.8,0.8-5.1,2.3c-1.3,1.6-2,4.1-2,7.7v23.9h-18V549.9z
		"/>
</g>
    <g>
	<linearGradient id="SVGID_1_" gradientUnits="userSpaceOnUse" x1="185.314" y1="588.3211" x2="504.3201" y2="269.315">
		<stop offset="0" style="stop-color:#9ED82A"/>
        <stop offset="1" style="stop-color:#1C900A"/>
	</linearGradient>
        <path class="st1" d="M375.8,270.3c-4.7,21.7,6.3,44.2,32.6,55.6C586.2,403,644.8,472.1,650.1,475.8c3.6,2.6-102-50.6-269.5-64
		c-75.1-6-162.5-3.9-258.1,14.7c-66.7,13-48.7,48-48.7,48c-13.8-8.4-34-31.6-28.6-54.4c6-25.8,71.2-64.9,72.2-66.3
		c2.4-3.1,3.2-25.4,0.5-23C98.6,348.2,87.5,374,87.5,374c-20.6-26.8,5.3-45.8,11-50.2c149.3-115.9,348-121.7,340.2-119.8
		C434.2,205.2,385.2,226.7,375.8,270.3z"/>

        <linearGradient id="SVGID_2_" gradientUnits="userSpaceOnUse" x1="522.3958" y1="272.886" x2="658.9346"
                        y2="409.4248"
                        gradientTransform="matrix(0.9984 -5.622910e-02 5.622910e-02 0.9984 -19.294 33.4772)">
		<stop offset="0" style="stop-color:#1C900A"/>
            <stop offset="1" style="stop-color:#9ED82A"/>
	</linearGradient>
        <path class="st2" d="M629.5,432c0,0-59.2-76.8-4.2-92.3c34.9-9.8,87,8.9,87,8.9c-135.1-93.5-255.3-17.7-243.9-14.4
		C542.9,355.5,615.3,421.7,629.5,432z"/>
        <linearGradient id="SVGID_3_" gradientUnits="userSpaceOnUse" x1="473.9432" y1="185.8417" x2="668.3728"
                        y2="380.2713">
		<stop offset="0" style="stop-color:#1C900A"/>
            <stop offset="1" style="stop-color:#9ED82A"/>
	</linearGradient>
        <path class="st3"
              d="M755.8,292.9c0,0-184.7-138.5-302.4-75.1c-118.7,63.9,0,106.5,0,106.5C470.3,214.2,755.8,292.9,755.8,292.9z"
        />
</g>
</svg>
