<?xml version="1.0" encoding="utf-8"?>
<!-- Generator: Adobe Illustrator 19.1.0, SVG Export Plug-In . SVG Version: 6.00 Build 0)  -->
<svg version="1.1" id="Layer_1" xmlns="http://www.w3.org/2000/svg" xmlns:xlink="http://www.w3.org/1999/xlink" x="0px" y="0px"
	 viewBox="0 0 800 800" style="enable-background:new 0 0 800 800;" xml:space="preserve">
<style type="text/css">
	.st0{fill:#1C2238;}
	.st1{fill:url(#SVGID_1_);}
	.st2{fill:url(#SVGID_2_);}
	.st3{fill:url(#SVGID_3_);}
	.st4{fill:#9ED82A;}
	.st5{fill:#1C900A;}
	.st6{fill:url(#SVGID_4_);}
	.st7{fill:url(#SVGID_5_);}
	.st8{fill:url(#SVGID_6_);}
</style>
<rect class="st0" width="800" height="800"/>
<g>
	<linearGradient id="SVGID_1_" gradientUnits="userSpaceOnUse" x1="53.4861" y1="400" x2="746.5139" y2="400">
		<stop  offset="0" style="stop-color:#BF0C42"/>
		<stop  offset="0.24" style="stop-color:#BF0B47"/>
		<stop  offset="0.2528" style="stop-color:#BF0B47"/>
		<stop  offset="1" style="stop-color:#7C0C24"/>
	</linearGradient>
	<path class="st1" d="M528.6,258.2c-16.6,23.1-15.2,55.3,10,82.1c170,181.7,203.6,293.1,207.9,300.2c3,4.9-94.2-111.8-284.5-213.2
		c-85.3-45.4-189.3-87.8-311.5-114.7c-85.2-18.8-81.9,31.6-81.9,31.6c-11.9-17-23.8-54.6-5.9-78.7c20.3-27.3,117-40,118.9-41.1
		c4.4-2.5,16.7-28.3,12.4-26.8c-31.4,10.5-57.7,35.2-57.7,35.2c-10.6-42.1,29.6-51.2,38.6-53.5c235-60,472,34.8,461.8,33.1
		C630.8,211.4,562,211.7,528.6,258.2z"/>
	<g>
		<linearGradient id="SVGID_2_" gradientUnits="userSpaceOnUse" x1="118.9103" y1="534.3155" x2="281.3312" y2="534.3155">
			<stop  offset="0" style="stop-color:#BF0C42"/>
			<stop  offset="0.24" style="stop-color:#BF0B47"/>
			<stop  offset="0.2528" style="stop-color:#BF0B47"/>
			<stop  offset="1" style="stop-color:#7C0C24"/>
		</linearGradient>
		<path class="st2" d="M118.9,428h162.4v45.7h-96.4v37.1h82.4v42.9h-82.4v86.9h-66V428z"/>
		<linearGradient id="SVGID_3_" gradientUnits="userSpaceOnUse" x1="304.504" y1="534.3155" x2="472.7257" y2="534.3155">
			<stop  offset="0" style="stop-color:#BF0C42"/>
			<stop  offset="0.24" style="stop-color:#BF0B47"/>
			<stop  offset="0.2528" style="stop-color:#BF0B47"/>
			<stop  offset="1" style="stop-color:#7C0C24"/>
		</linearGradient>
		<path class="st3" d="M304.5,428h65.7v160.2h102.5v52.4H304.5V428z"/>
	</g>
</g>
</svg>
